<?xml version="1.0" encoding="UTF-8" standalone="no"?>
<!DOCTYPE svg PUBLIC "-//W3C//DTD SVG 1.1//EN" "http://www.w3.org/Graphics/SVG/1.1/DTD/svg11.dtd">
<svg width="100%" height="100%" viewBox="0 0 70 70" version="1.1" xmlns="http://www.w3.org/2000/svg" xmlns:xlink="http://www.w3.org/1999/xlink" xml:space="preserve" xmlns:serif="http://www.serif.com/" style="fill-rule:evenodd;clip-rule:evenodd;stroke-linejoin:round;stroke-miterlimit:1.41421;">
    <g transform="matrix(1,0,0,1,18.455,23.636)">
        <g id="Drop-Shadow" serif:id="Drop Shadow">
            <g>
                <path d="M16.545,5.091C17.248,5.091 17.818,4.521 17.818,3.818L17.818,1.273C17.818,0.57 17.248,0 16.545,0C15.843,0 15.273,0.57 15.273,1.273L15.273,3.818C15.273,4.521 15.843,5.091 16.545,5.091ZM31.818,15.273L29.273,15.273C28.57,15.273 28,15.843 28,16.545C28,17.248 28.57,17.818 29.273,17.818L31.818,17.818C32.521,17.818 33.091,17.248 33.091,16.545C33.091,15.843 32.521,15.273 31.818,15.273ZM3.818,17.818C4.521,17.818 5.091,17.248 5.091,16.545C5.091,15.843 4.521,15.273 3.818,15.273L1.273,15.273C0.57,15.273 0,15.843 0,16.545C0,17.248 0.57,17.818 1.273,17.818L3.818,17.818ZM25.546,8.201C25.871,8.201 26.197,8.077 26.445,7.828L28.245,6.028C28.742,5.531 28.742,4.725 28.245,4.227C27.748,3.731 26.942,3.73 26.445,4.227L24.646,6.028C24.149,6.525 24.149,7.33 24.646,7.828C24.894,8.077 25.22,8.201 25.546,8.201ZM6.646,7.828C6.894,8.077 7.22,8.201 7.546,8.201C7.872,8.201 8.198,8.077 8.446,7.828C8.943,7.331 8.943,6.525 8.446,6.028L6.646,4.228C6.149,3.731 5.342,3.731 4.846,4.228C4.349,4.725 4.349,5.531 4.846,6.028L6.646,7.828Z" style="fill:rgb(29,29,29);fill-opacity:0.662745;fill-rule:nonzero;"/>
                <path d="M30.545,20.364L25.971,20.364C26.463,19.151 26.727,17.872 26.727,16.545C26.727,10.931 22.159,6.364 16.545,6.364C10.931,6.364 6.364,10.931 6.364,16.545C6.364,17.872 6.628,19.151 7.12,20.364L2.545,20.364C1.843,20.364 1.273,20.934 1.273,21.636C1.273,22.339 1.843,22.909 2.545,22.909L30.545,22.909C31.248,22.909 31.818,22.339 31.818,21.636C31.818,20.934 31.248,20.364 30.545,20.364ZM16.545,12.091C19.001,12.091 21,14.089 21,16.545C21,16.897 20.716,17.182 20.364,17.182C20.012,17.182 19.727,16.897 19.727,16.545C19.727,14.791 18.3,13.364 16.545,13.364C16.194,13.364 15.909,13.079 15.909,12.727C15.909,12.376 16.194,12.091 16.545,12.091ZM21.636,24.182L11.455,24.182C10.752,24.182 10.182,24.752 10.182,25.455C10.182,26.157 10.752,26.727 11.455,26.727L21.636,26.727C22.339,26.727 22.909,26.157 22.909,25.455C22.909,24.752 22.339,24.182 21.636,24.182Z" style="fill:rgb(29,29,29);fill-opacity:0.662745;fill-rule:nonzero;"/>
            </g>
        </g>
    </g>
    <g transform="matrix(1,0,0,0.987056,18.455,22.636)">
        <g id="Small-Shadow" serif:id="Small Shadow">
            <g>
                <path d="M16.545,5.091C17.248,5.091 17.818,4.521 17.818,3.818L17.818,1.273C17.818,0.57 17.248,0 16.545,0C15.843,0 15.273,0.57 15.273,1.273L15.273,3.818C15.273,4.521 15.843,5.091 16.545,5.091ZM31.818,15.273L29.273,15.273C28.57,15.273 28,15.843 28,16.545C28,17.248 28.57,17.818 29.273,17.818L31.818,17.818C32.521,17.818 33.091,17.248 33.091,16.545C33.091,15.843 32.521,15.273 31.818,15.273ZM3.818,17.818C4.521,17.818 5.091,17.248 5.091,16.545C5.091,15.843 4.521,15.273 3.818,15.273L1.273,15.273C0.57,15.273 0,15.843 0,16.545C0,17.248 0.57,17.818 1.273,17.818L3.818,17.818ZM25.546,8.201C25.871,8.201 26.197,8.077 26.445,7.828L28.245,6.028C28.742,5.531 28.742,4.725 28.245,4.227C27.748,3.731 26.942,3.73 26.445,4.227L24.646,6.028C24.149,6.525 24.149,7.33 24.646,7.828C24.894,8.077 25.22,8.201 25.546,8.201ZM6.646,7.828C6.894,8.077 7.22,8.201 7.546,8.201C7.872,8.201 8.198,8.077 8.446,7.828C8.943,7.331 8.943,6.525 8.446,6.028L6.646,4.228C6.149,3.731 5.342,3.731 4.846,4.228C4.349,4.725 4.349,5.531 4.846,6.028L6.646,7.828Z" style="fill:rgb(197,99,67);fill-rule:nonzero;"/>
                <path d="M30.545,20.364L25.971,20.364C26.463,19.151 26.727,17.872 26.727,16.545C26.727,10.931 22.159,6.364 16.545,6.364C10.931,6.364 6.364,10.931 6.364,16.545C6.364,17.872 6.628,19.151 7.12,20.364L2.545,20.364C1.843,20.364 1.273,20.934 1.273,21.636C1.273,22.339 1.843,22.909 2.545,22.909L30.545,22.909C31.248,22.909 31.818,22.339 31.818,21.636C31.818,20.934 31.248,20.364 30.545,20.364ZM16.545,12.091C19.001,12.091 21,14.089 21,16.545C21,16.897 20.716,17.182 20.364,17.182C20.012,17.182 19.727,16.897 19.727,16.545C19.727,14.791 18.3,13.364 16.545,13.364C16.194,13.364 15.909,13.079 15.909,12.727C15.909,12.376 16.194,12.091 16.545,12.091ZM21.636,24.182L11.455,24.182C10.752,24.182 10.182,24.752 10.182,25.455C10.182,26.157 10.752,26.727 11.455,26.727L21.636,26.727C22.339,26.727 22.909,26.157 22.909,25.455C22.909,24.752 22.339,24.182 21.636,24.182Z" style="fill:rgb(197,99,67);fill-rule:nonzero;"/>
            </g>
        </g>
    </g>
    <g transform="matrix(1,0,0,1,18.455,21.636)">
        <g id="Main">
            <g>
                <path d="M16.545,5.091C17.248,5.091 17.818,4.521 17.818,3.818L17.818,1.273C17.818,0.57 17.248,0 16.545,0C15.843,0 15.273,0.57 15.273,1.273L15.273,3.818C15.273,4.521 15.843,5.091 16.545,5.091ZM31.818,15.273L29.273,15.273C28.57,15.273 28,15.843 28,16.545C28,17.248 28.57,17.818 29.273,17.818L31.818,17.818C32.521,17.818 33.091,17.248 33.091,16.545C33.091,15.843 32.521,15.273 31.818,15.273ZM3.818,17.818C4.521,17.818 5.091,17.248 5.091,16.545C5.091,15.843 4.521,15.273 3.818,15.273L1.273,15.273C0.57,15.273 0,15.843 0,16.545C0,17.248 0.57,17.818 1.273,17.818L3.818,17.818ZM25.546,8.201C25.871,8.201 26.197,8.077 26.445,7.828L28.245,6.028C28.742,5.531 28.742,4.725 28.245,4.227C27.748,3.731 26.942,3.73 26.445,4.227L24.646,6.028C24.149,6.525 24.149,7.33 24.646,7.828C24.894,8.077 25.22,8.201 25.546,8.201ZM6.646,7.828C6.894,8.077 7.22,8.201 7.546,8.201C7.872,8.201 8.198,8.077 8.446,7.828C8.943,7.331 8.943,6.525 8.446,6.028L6.646,4.228C6.149,3.731 5.342,3.731 4.846,4.228C4.349,4.725 4.349,5.531 4.846,6.028L6.646,7.828Z" style="fill:rgb(255,228,210);fill-rule:nonzero;stroke:rgb(28,132,188);stroke-width:0.55px;"/>
                <path d="M30.545,20.364L25.971,20.364C26.463,19.151 26.727,17.872 26.727,16.545C26.727,10.931 22.159,6.364 16.545,6.364C10.931,6.364 6.364,10.931 6.364,16.545C6.364,17.872 6.628,19.151 7.12,20.364L2.545,20.364C1.843,20.364 1.273,20.934 1.273,21.636C1.273,22.339 1.843,22.909 2.545,22.909L30.545,22.909C31.248,22.909 31.818,22.339 31.818,21.636C31.818,20.934 31.248,20.364 30.545,20.364ZM16.545,12.091C19.001,12.091 21,14.089 21,16.545C21,16.897 20.716,17.182 20.364,17.182C20.012,17.182 19.727,16.897 19.727,16.545C19.727,14.791 18.3,13.364 16.545,13.364C16.194,13.364 15.909,13.079 15.909,12.727C15.909,12.376 16.194,12.091 16.545,12.091ZM21.636,24.182L11.455,24.182C10.752,24.182 10.182,24.752 10.182,25.455C10.182,26.157 10.752,26.727 11.455,26.727L21.636,26.727C22.339,26.727 22.909,26.157 22.909,25.455C22.909,24.752 22.339,24.182 21.636,24.182Z" style="fill:rgb(255,228,210);fill-rule:nonzero;stroke:rgb(28,132,188);stroke-width:0.55px;"/>
            </g>
        </g>
    </g>
</svg>
